<svg xmlns="http://www.w3.org/2000/svg" version="1.1" xmlns:xlink="http://www.w3.org/1999/xlink" width="1000" height="1000"><g clip-path="url(#SvgjsClipPath1076)"><rect width="1000" height="1000" fill="#ffffff"></rect><g transform="matrix(0.6385696040868455,0,0,0.6385696040868455,0,0)"><svg xmlns="http://www.w3.org/2000/svg" version="1.1" xmlns:xlink="http://www.w3.org/1999/xlink" width="1566" height="1566"><svg width="1566" height="1566" viewBox="0 0 1566 1566" fill="none" xmlns="http://www.w3.org/2000/svg">
<rect width="1566" height="1566" fill="white"></rect>
<path d="M470 396L474 398L722 646H849L1010 485L1019 477L1024 471L1032 464L1036 459L1043 453L1048 448L1052 443H1054L1056 439L1097 398L1101 397L1207 503L1206 507L974 739L967 745L963 750L958 755L951 761L947 766L942 771L929 783L925 787L888 788L887 1213H1036L1030 1220L784 1466L780 1464L531 1215L534 1213H711L710 788L640 787L366 513L361 507L363 503L436 430H438V428L446 421L463 404L468 398H470V396Z" fill="black"></path>
<path d="M304 590L308 592L409 693L403 700L315 788L317 792L420 895L427 889L515 801L518 802L522 807L524 808V810H526V812H528L532 816V818H534L541 826L548 832V834H550L557 842L617 902L615 906L446 1075L440 1080L435 1086L430 1091L420 1100H417L271 954L261 945V943L257 941L106 790V787L118 775L125 769L128 765H130L132 761L141 753L148 745L160 734L186 708L304 590Z" fill="black"></path>
<path d="M1262 590L1266 592L1461 787L1459 791L1151 1099H1148V1097H1146L1139 1089L953 903L959 896L1054 801L1061 807L1149 895L1156 889L1255 790L1249 783L1160 694L1162 690L1262 590Z" fill="black"></path>
<path d="M1028.32 345.659L783.659 590.318L539 345.659L783.659 101L1028.32 345.659ZM735 346.497L784.497 395.995L833.995 346.497L784.497 297L735 346.497Z" fill="black"></path>
</svg></svg></g></g><defs><clipPath id="SvgjsClipPath1076"><rect width="1000" height="1000" x="0" y="0" rx="500" ry="500"></rect></clipPath></defs></svg>